<?xml version="1.0" encoding="utf-8"?>
<!-- Generator: Adobe Illustrator 16.0.0, SVG Export Plug-In . SVG Version: 6.00 Build 0)  -->
<svg version="1.2" baseProfile="tiny" id="Layer_1" xmlns="http://www.w3.org/2000/svg" xmlns:xlink="http://www.w3.org/1999/xlink"
	 x="0px" y="0px" width="800px" height="800px" viewBox="0 0 800 800" xml:space="preserve">
<g>
	<rect x="37.221" y="28.152" fill="#FFFFFF" width="725.559" height="743.695"/>
	<rect x="399.719" y="78.759" fill="#FC0019" width="312.32" height="646.292"/>
	<polygon fill="#0F228C" points="437.342,725.062 89.522,725.062 89.522,78.759 401.355,78.759 401.355,685.068 	"/>
	<path fill="#FFFFFF" d="M574.298,358.282v8.465c74.505,7.333,79.819,40.063,79.819,111.739v59.264
		c0,68.829,11.17,185.101-103.775,185.101c-145.84,0-128.793-145.606-128.793-156.33V450.832c0-62.079,6.834-73.366,76.544-84.085
		v-8.465H308.729v8.465c63.854,9.023,64.386,25.954,65.971,84.085v126.412c0,45.148-17.016,171.55,147.965,171.55
		c118.145,0,147.425-73.918,149.009-146.722l3.188-123.586c2.147-74.499,5.335-106.102,53.77-111.739v-8.465H574.298z"/>
	<path fill="#FFFFFF" d="M356.982,517.035V506.63c-99.534-15.262-89.054-38.154-32.745-180.34l77.267-196.287l104.764,267.725
		c17.005,43.698,47.135,99.188-45.193,108.902v10.405h207.57V506.63c-58.295-6.929-73.355-51.334-92.986-101.967L427.682,29.428
		h-9.173L293.457,345.709c-40.578,100.585-59.581,155.374-121.119,160.921v10.405H356.982z"/>
</g>
</svg>
